<svg xmlns="http://www.w3.org/2000/svg" x="0px" y="0px" width="146" height="48" viewBox="0 0 146 48"
     enable-background="new 0 0 146 48">
  <path
    d="M75.1745 2.64144C75.1546 3.328 74.9233 3.99185 74.512 4.54293C74.3335 4.77941 74.1009 4.96991 73.8335 5.09855C73.5662 5.22718 73.2718 5.29022 72.975 5.2824C72.6642 5.28704 72.3567 5.21897 72.0771 5.08366C71.7975 4.94835 71.5537 4.74959 71.3651 4.50332C70.9255 3.96756 70.6908 3.29381 70.7026 2.60182C70.7038 1.93605 70.9381 1.29157 71.3651 0.779559C71.5537 0.533293 71.7975 0.334524 72.0771 0.199218C72.3567 0.063912 72.6642 -0.00415814 72.975 0.000475238C73.2833 -0.00637137 73.5888 0.0608474 73.8655 0.196451C74.1423 0.332055 74.3822 0.532058 74.565 0.779559C74.9758 1.31245 75.191 1.96961 75.1745 2.64144Z"></path>
  <path fill-rule="evenodd" clip-rule="evenodd"
        d="M55.538 35.4356C55.8694 34.4824 56.0352 33.4799 56.0283 32.4711L56.0415 16.7442C56.0415 14.4422 55.379 12.6661 54.054 11.4161C53.039 10.5536 51.8207 9.96237 50.5136 9.6979C49.2064 9.43343 47.8532 9.50438 46.5811 9.9041C45.9893 10.0991 45.4578 10.4424 45.0375 10.9011V0.000483575L40.7379 1.4134V39.7074H43.5733L44.5538 38.2945C45.0105 38.7951 45.5266 39.2386 46.0908 39.6149C46.9566 40.1579 47.9715 40.4165 48.9926 40.3544C50.0185 40.3736 51.034 40.1472 51.9539 39.6942C52.8 39.2708 53.5471 38.6747 54.1468 37.9445C54.7583 37.1985 55.2296 36.3486 55.538 35.4356ZM46.0709 14.3871C46.7275 13.8554 47.5504 13.5704 48.3963 13.5816C49.2436 13.5717 50.0697 13.8461 50.7416 14.3607C51.0909 14.6474 51.3659 15.0136 51.5435 15.4284C51.7211 15.8432 51.7959 16.2945 51.7618 16.7442V32.4711C51.7618 33.8642 51.4173 34.815 50.715 35.3168C50.0257 35.8142 49.1944 36.0781 48.3433 36.0694C47.4955 36.082 46.6751 35.7701 46.0511 35.1979C45.7007 34.8403 45.4318 34.4116 45.2626 33.941C45.0934 33.4705 45.0279 32.9692 45.0706 32.4711V16.7442C45.0421 16.3009 45.1177 15.857 45.2913 15.4479C45.465 15.0387 45.7319 14.6755 46.0709 14.3871Z"></path>
  <path
    d="M67.8835 9.70061C67.4469 9.55898 66.9865 9.50472 66.5288 9.54096C65.7049 9.50698 64.8953 9.7642 64.2432 10.2672C63.6999 10.6836 63.2488 11.2073 62.9182 11.8056L61.9377 9.90409H59.1089V39.6744H63.4018V17.1667C63.3788 16.2848 63.6994 15.4282 64.2962 14.7767C64.5396 14.4853 64.8431 14.2496 65.186 14.0855C65.529 13.9215 65.9034 13.8329 66.2837 13.8259C66.5196 13.7958 66.7592 13.8149 66.9873 13.8819C67.2154 13.949 67.427 14.0626 67.6087 14.2155L69.0728 10.3663C68.7242 10.0685 68.32 9.84224 67.8835 9.70061Z"></path>
  <path d="M70.7291 9.93049H75.0287V39.6743H70.7291V9.93049Z"></path>
  <path fill-rule="evenodd" clip-rule="evenodd"
        d="M93.6383 13.5354V25.2151C93.7348 26.9811 93.16 28.7186 92.0284 30.0811C90.9552 31.2827 89.1885 31.998 86.7284 32.2268C85.589 32.3193 84.8536 32.5834 84.529 33.0059C84.2222 33.3787 84.0516 33.8443 84.0453 34.3264C84.0617 34.6808 84.1713 35.0246 84.3633 35.3234C84.4679 35.5124 84.6186 35.672 84.8016 35.7875C84.9846 35.9029 85.1939 35.9704 85.4101 35.9836H94.738L92.3199 40.2752H83.575C81.8525 40.2752 80.9846 40.8628 80.9846 42.0314C80.9672 42.2904 81.0195 42.5492 81.1359 42.7813C81.2524 43.0134 81.4288 43.2104 81.6471 43.3519C82.1414 43.6438 82.7093 43.7882 83.2835 43.7679H91.1473L88.8087 48H83.1907C81.1436 48 79.5602 47.4586 78.4539 46.389C77.8905 45.8214 77.4518 45.1433 77.1655 44.3977C76.8792 43.652 76.7517 42.8552 76.791 42.0578C76.7612 40.7049 77.2329 39.3885 78.116 38.3605C79.0742 37.2952 80.3483 36.562 81.7531 36.2675C81.2863 36.1443 80.8853 35.8463 80.6335 35.4356C80.3988 35.0355 80.2796 34.5785 80.289 34.1151C80.3127 33.6025 80.5113 33.1133 80.8521 32.7286C81.3306 32.1994 81.9753 31.8478 82.6806 31.7317C81.4517 31.1555 80.4232 30.2269 79.7269 29.0648C79.0306 27.9027 78.698 26.56 78.7719 25.2085V16.7442C78.7175 15.779 78.861 14.8129 79.1936 13.9048C79.5261 12.9967 80.0409 12.1656 80.7064 11.4623C81.4046 10.8043 82.2298 10.2947 83.1318 9.96442C84.0338 9.63413 84.9937 9.49006 85.9533 9.54097C86.9032 9.52534 87.8525 9.59828 88.7888 9.75884C89.3633 9.84818 89.9215 10.0217 90.4451 10.2738H95.745L93.6383 13.5354ZM89.3917 16.6452C89.4305 16.1958 89.3619 15.7438 89.1915 15.326C89.021 14.9082 88.7536 14.5367 88.4112 14.2419C87.7618 13.7493 86.9682 13.4825 86.1521 13.4825C85.336 13.4825 84.5424 13.7493 83.893 14.2419C83.557 14.5406 83.2958 14.9135 83.1301 15.3308C82.9645 15.7481 82.899 16.1982 82.939 16.6452V25.3141C82.9074 25.7505 82.9771 26.1883 83.1425 26.5936C83.3079 26.9989 83.5647 27.3608 83.893 27.6514C84.5372 28.1558 85.3328 28.4299 86.1521 28.4299C86.9714 28.4299 87.7669 28.1558 88.4112 27.6514C88.7458 27.3647 89.0088 27.0041 89.179 26.5984C89.3492 26.1926 89.422 25.7529 89.3917 25.3141V16.6452Z"></path>
  <path
    d="M109.174 39.6744H113.467V16.7442C113.487 15.6877 113.298 14.6376 112.91 13.6543C112.566 12.8111 112.05 12.0487 111.393 11.4161C110.752 10.8128 109.998 10.3416 109.174 10.0295C108.315 9.70279 107.403 9.53714 106.484 9.54097C105.704 9.5324 104.926 9.61438 104.165 9.78525C103.532 9.91228 102.948 10.2169 102.482 10.6634V0.000483575L98.1829 1.4134V39.6744H102.482V16.7442C102.437 16.2886 102.505 15.8288 102.679 15.4052C102.853 14.9816 103.129 14.6071 103.483 14.3145C104.154 13.8234 104.969 13.5658 105.802 13.5816C106.642 13.5687 107.464 13.8257 108.147 14.3145C108.507 14.6028 108.789 14.9758 108.969 15.4C109.148 15.8241 109.218 16.2861 109.174 16.7442V39.6744Z"></path>
  <path
    d="M125.094 36.0695C125.477 36.1018 125.863 36.0284 126.207 35.8572C126.552 35.686 126.843 35.4237 127.048 35.0989L130.029 38.3077C129.452 38.977 128.72 39.496 127.896 39.8196C127.078 40.1639 126.2 40.3456 125.312 40.3544C123.06 40.3544 121.381 39.7294 120.277 38.4793C119.151 37.2315 118.621 35.4026 118.621 33.0125V13.7269H115.885V9.90411H118.621V4.52975L122.914 3.06401V9.90411H128.558V13.7005H122.894V33.0125C122.894 35.0505 123.627 36.0695 125.094 36.0695Z"></path>
  <path fill-rule="evenodd" clip-rule="evenodd"
        d="M145.141 36.0958C145.531 35.0946 145.722 34.0272 145.704 32.9531V31.0318L141.351 32.4711V32.9531C141.379 33.3753 141.32 33.7987 141.178 34.1973C141.036 34.5959 140.813 34.9611 140.523 35.2705C139.932 35.786 139.172 36.07 138.387 36.07C137.601 36.07 136.842 35.786 136.25 35.2705C135.966 34.9582 135.748 34.592 135.609 34.1939C135.47 33.7957 135.413 33.3737 135.442 32.9531V31.494C137.297 30.5564 138.9 29.6585 140.225 28.82C141.464 28.0601 142.571 27.1059 143.504 25.9942C144.363 24.9284 145 23.703 145.379 22.3892C145.827 20.7416 146.035 19.0383 145.995 17.3318C146.017 16.1928 145.817 15.0604 145.406 13.9976C145.043 13.0835 144.495 12.254 143.796 11.5613C143.119 10.9021 142.314 10.3876 141.431 10.0493C140.518 9.70839 139.55 9.53611 138.575 9.54095C137.578 9.53232 136.586 9.68849 135.641 10.0031C134.764 10.2957 133.958 10.768 133.275 11.3896C132.596 12.0227 132.062 12.7954 131.712 13.6543C131.319 14.6365 131.128 15.6871 131.149 16.7442V32.9531C131.13 34.0272 131.321 35.0946 131.712 36.0958C132.054 36.9736 132.578 37.7699 133.249 38.4331C133.904 39.0687 134.688 39.5572 135.548 39.8658C136.471 40.1989 137.447 40.3644 138.43 40.3544C139.403 40.3593 140.369 40.194 141.285 39.8658C142.153 39.5606 142.944 39.0719 143.604 38.4331C144.275 37.7699 144.798 36.9736 145.141 36.0958ZM140.801 14.4597C141.417 15.0408 141.729 16.0839 141.729 17.5761H141.702C141.719 18.5841 141.646 19.5916 141.484 20.5868C141.328 21.4324 141.013 22.2411 140.556 22.9703C140.047 23.7414 139.401 24.4128 138.648 24.951C137.65 25.6561 136.588 26.2662 135.475 26.7732V16.7442C135.444 16.3096 135.508 15.8735 135.664 15.4664C135.819 15.0592 136.063 14.6909 136.376 14.3871C136.989 13.8471 137.784 13.5592 138.602 13.5816C139.008 13.5761 139.412 13.6508 139.79 13.8015C140.167 13.9522 140.511 14.1759 140.801 14.4597Z"></path>
  <path
    d="M1.45185 11.2246C3.43365 10.067 5.59379 9.24385 7.84494 8.78829C11.9956 7.8008 16.1978 7.04257 20.4324 6.51706C24.0098 6.08791 24.4073 4.26564 24.4073 4.26564C24.4073 4.26564 25.1493 0.964436 22.6782 0.304195C20.2071 -0.356046 14.7283 0.475857 10.9918 1.21533C8.28881 1.74352 2.54497 3.19605 0.908601 5.91624C0.437939 6.67414 0.20538 7.55495 0.240795 8.44556C0.27621 9.33616 0.577983 10.1959 1.10735 10.9143L1.45185 11.2246Z"></path>
  <path
    d="M16.2652 15.9519C13.253 16.4031 10.2675 17.0158 7.32151 17.7874C5.20991 18.2482 3.22477 19.1631 1.50479 20.4679C1.50479 20.4679 -0.893443 18.1835 0.365299 15.6482C1.62404 13.1129 4.32703 12.0631 6.81139 11.4028C10.2961 10.4983 17.5505 9.21744 20.8629 8.76187C21.0815 8.73171 21.3024 8.70105 21.5249 8.67017C25.4428 8.12637 29.8706 7.5118 31.4629 8.2865C33.1456 9.10519 33.3179 12.5781 31.6086 13.4628C30.1081 14.2395 28.6893 14.3852 27.0206 14.5566C26.7884 14.5805 26.5514 14.6048 26.3086 14.6314C23.978 14.8715 19.4349 15.5082 17.2186 15.8188C16.8143 15.8755 16.487 15.9213 16.2652 15.9519Z"></path>
  <path
    d="M31.2443 16.6584C30.3322 16.4396 26.1886 16.9867 22.7098 17.446C21.4632 17.6105 20.302 17.7638 19.4055 17.8666C16.0069 18.2561 7.91781 19.7549 5.40032 20.732C2.98883 21.663 1.30609 22.8976 1.16697 25.3537C1.02785 27.8098 2.37934 29.0973 4.00908 29.3812C5.63882 29.6651 6.65906 32.1608 6.65906 32.1608C6.65906 32.1608 9.60055 31.9825 10.21 31.9825C10.2763 31.5204 10.1637 29.2822 8.98442 28.1334C7.57993 26.7667 3.61821 28.0277 3.61821 28.0277C3.88118 27.6357 4.27583 27.3501 4.7312 27.2222C6.1249 26.6362 19.1379 24.7756 23.7868 24.1109C24.3752 24.0268 24.8297 23.9618 25.1096 23.921C25.2605 23.899 25.4122 23.8773 25.5643 23.8554C27.9237 23.517 30.3967 23.1623 31.8405 21.6366C33.3775 20.0124 32.8409 17.0413 31.2443 16.6584Z"></path>
  <path
    d="M29.3628 31.9826H23.8839C23.8538 31.9844 23.8236 31.9801 23.7952 31.97C23.7667 31.9599 23.7406 31.9443 23.7184 31.924C23.6961 31.9036 23.6782 31.8791 23.6657 31.8517C23.6531 31.8243 23.6463 31.7948 23.6454 31.7647C23.7143 30.1747 23.8891 28.591 24.1688 27.0242C23.9072 27.4513 23.6126 27.8575 23.2877 28.239C23.2581 28.269 23.2209 28.2904 23.18 28.3008C23.1392 28.3113 23.0962 28.3105 23.0558 28.2984L18.743 26.9053C18.6961 26.8897 18.656 26.8588 18.629 26.8176C18.6021 26.7764 18.5899 26.7273 18.5945 26.6783C18.5991 26.6293 18.6202 26.5833 18.6544 26.5478C18.6886 26.5123 18.7338 26.4894 18.7827 26.4828C22.4529 26.08 27.7198 25.2811 29.3098 24.8916C29.3569 24.875 29.4084 24.875 29.4555 24.8916C30.2254 25.2489 30.1894 25.8824 30.1427 26.7053C30.1307 26.9162 30.118 27.1397 30.118 27.3741C30.0706 28.8663 29.8887 30.3512 29.5748 31.8109C29.5667 31.8604 29.5406 31.9053 29.5016 31.937C29.4625 31.9686 29.4131 31.9848 29.3628 31.9826Z"></path>
  <path
    d="M28.5877 33.3757H6.91744C6.20672 33.3757 5.5251 33.657 5.02254 34.1579C4.51998 34.6587 4.23765 35.338 4.23765 36.0463C4.23765 36.7546 4.51998 37.4339 5.02254 37.9348C5.5251 38.4356 6.20672 38.717 6.91744 38.717H7.67269C7.68633 38.8533 7.73669 38.9833 7.81844 39.0933L10.0908 43.4113C10.1631 43.5058 10.2564 43.5823 10.3632 43.635C10.4701 43.6876 10.5877 43.715 10.7069 43.715H24.7982C24.9174 43.715 25.035 43.6876 25.1419 43.635C25.2488 43.5823 25.342 43.5058 25.4143 43.4113L27.6867 39.0933C27.7684 38.9833 27.8188 38.8533 27.8324 38.717H28.5877C29.2984 38.717 29.98 38.4356 30.4826 37.9348C30.9852 37.4339 31.2675 36.7546 31.2675 36.0463C31.2675 35.338 30.9852 34.6587 30.4826 34.1579C29.98 33.657 29.2984 33.3757 28.5877 33.3757Z"></path>
  <path
    d="M13.9465 44.9497H21.8964C21.9491 44.9426 22.0026 44.9518 22.0498 44.9761C22.097 45.0004 22.1356 45.0386 22.1602 45.0855C22.1848 45.1324 22.1943 45.1857 22.1874 45.2382C22.1805 45.2907 22.1576 45.3398 22.1217 45.3788L20.2402 47.3992C20.0705 47.5811 19.8656 47.7269 19.6379 47.8279C19.4102 47.9289 19.1644 47.9829 18.9152 47.9868H17.1927C16.9476 47.9921 16.7038 47.9481 16.4762 47.8574C16.2485 47.7666 16.0415 47.631 15.8677 47.4586L13.761 45.3854C13.726 45.3491 13.7024 45.3033 13.6933 45.2537C13.6842 45.2042 13.6898 45.153 13.7096 45.1066C13.7293 45.0602 13.7623 45.0206 13.8044 44.9927C13.8465 44.9648 13.8959 44.9499 13.9465 44.9497Z"></path>
</svg>
